<svg width="172" height="30" viewBox="0 0 172 30" fill="none" xmlns="http://www.w3.org/2000/svg">
<path d="M50.7407 0H107.036V30H50.7407V0Z" fill="#3992FF"/>
<path d="M0 22.5V6.075H2.81476V14.985H4.77383L7.79125 10.125H10.9438L7.20578 16.11L11.0113 22.5H7.79125L4.77383 17.37H2.81476V22.5H0Z" fill="white"/>
<path d="M18.456 22.7025C17.4052 22.7025 16.4894 22.5075 15.7088 22.1175C14.9432 21.7125 14.3427 21.15 13.9074 20.43C13.487 19.695 13.2769 18.8325 13.2769 17.8425V14.7825C13.2769 13.7925 13.487 12.9375 13.9074 12.2175C14.3427 11.4825 14.9432 10.92 15.7088 10.53C16.4894 10.125 17.4052 9.9225 18.456 9.9225C19.5219 9.9225 20.4376 10.125 21.2032 10.53C21.9688 10.92 22.5618 11.4825 22.9821 12.2175C23.4175 12.9375 23.6352 13.785 23.6352 14.76V17.8425C23.6352 18.8325 23.4175 19.695 22.9821 20.43C22.5618 21.15 21.9688 21.7125 21.2032 22.1175C20.4376 22.5075 19.5219 22.7025 18.456 22.7025ZM18.456 20.25C19.2066 20.25 19.7846 20.0475 20.1899 19.6425C20.6102 19.2225 20.8204 18.6225 20.8204 17.8425V14.7825C20.8204 13.9875 20.6102 13.3875 20.1899 12.9825C19.7846 12.5775 19.2066 12.375 18.456 12.375C17.7204 12.375 17.1425 12.5775 16.7221 12.9825C16.3018 13.3875 16.0916 13.9875 16.0916 14.7825V17.8425C16.0916 18.6225 16.3018 19.2225 16.7221 19.6425C17.1425 20.0475 17.7204 20.25 18.456 20.25Z" fill="white"/>
<path d="M30.8997 22.725C29.6687 22.725 28.6704 22.2975 27.9048 21.4425C27.1542 20.5875 26.7789 19.44 26.7789 18V14.6475C26.7789 13.1925 27.1542 12.0375 27.9048 11.1825C28.6554 10.3275 29.6537 9.9 30.8997 9.9C31.9205 9.9 32.7312 10.1925 33.3317 10.7775C33.9321 11.3475 34.2324 12.135 34.2324 13.14L33.6019 12.4875H34.2549L34.1648 9.54V6.075H36.9796V22.5H34.2324V20.1375H33.6019L34.2324 19.485C34.2324 20.49 33.9321 21.285 33.3317 21.87C32.7312 22.44 31.9205 22.725 30.8997 22.725ZM31.8905 20.295C32.6111 20.295 33.1665 20.085 33.5568 19.665C33.9622 19.23 34.1648 18.63 34.1648 17.865V14.76C34.1648 13.995 33.9622 13.4025 33.5568 12.9825C33.1665 12.5475 32.6111 12.33 31.8905 12.33C31.1699 12.33 30.607 12.54 30.2016 12.96C29.7963 13.38 29.5937 13.98 29.5937 14.76V17.865C29.5937 18.645 29.7963 19.245 30.2016 19.665C30.607 20.085 31.1699 20.295 31.8905 20.295Z" fill="white"/>
<path d="M45.4826 22.725C44.4318 22.725 43.516 22.5225 42.7354 22.1175C41.9548 21.7125 41.3468 21.15 40.9114 20.43C40.4911 19.695 40.2809 18.84 40.2809 17.865V14.76C40.2809 13.785 40.4911 12.9375 40.9114 12.2175C41.3468 11.4825 41.9548 10.9125 42.7354 10.5075C43.516 10.1025 44.4318 9.9 45.4826 9.9C46.5184 9.9 47.4192 10.1025 48.1848 10.5075C48.9654 10.9125 49.5659 11.4825 49.9862 12.2175C50.4216 12.9375 50.6392 13.785 50.6392 14.76V16.9875H43.0056V17.865C43.0056 18.735 43.2158 19.395 43.6361 19.845C44.0565 20.28 44.6795 20.4975 45.5051 20.4975C46.1356 20.4975 46.646 20.3925 47.0364 20.1825C47.4267 19.9575 47.6744 19.635 47.7795 19.215H50.5492C50.339 20.28 49.7686 21.135 48.8378 21.78C47.9221 22.41 46.8037 22.725 45.4826 22.725ZM47.9146 15.4125V14.7375C47.9146 13.8825 47.7119 13.23 47.3066 12.78C46.9013 12.315 46.2933 12.0825 45.4826 12.0825C44.672 12.0825 44.0565 12.315 43.6361 12.78C43.2158 13.245 43.0056 13.905 43.0056 14.76V15.2325L48.1172 15.1875L47.9146 15.4125Z" fill="white"/>
<path d="M54.0082 22.5V6.075H56.8229V14.985H58.782L61.7994 10.125H64.9519L61.2139 16.11L65.0195 22.5H61.7994L58.782 17.37H56.8229V22.5H54.0082Z" fill="#121212"/>
<path d="M72.4642 22.7025C71.4133 22.7025 70.4976 22.5075 69.717 22.1175C68.9514 21.7125 68.3509 21.15 67.9155 20.43C67.4952 19.695 67.285 18.8325 67.285 17.8425V14.7825C67.285 13.7925 67.4952 12.9375 67.9155 12.2175C68.3509 11.4825 68.9514 10.92 69.717 10.53C70.4976 10.125 71.4133 9.9225 72.4642 9.9225C73.53 9.9225 74.4458 10.125 75.2114 10.53C75.977 10.92 76.57 11.4825 76.9903 12.2175C77.4257 12.9375 77.6433 13.785 77.6433 14.76V17.8425C77.6433 18.8325 77.4257 19.695 76.9903 20.43C76.57 21.15 75.977 21.7125 75.2114 22.1175C74.4458 22.5075 73.53 22.7025 72.4642 22.7025ZM72.4642 20.25C73.2148 20.25 73.7927 20.0475 74.1981 19.6425C74.6184 19.2225 74.8286 18.6225 74.8286 17.8425V14.7825C74.8286 13.9875 74.6184 13.3875 74.1981 12.9825C73.7927 12.5775 73.2148 12.375 72.4642 12.375C71.7286 12.375 71.1506 12.5775 70.7303 12.9825C70.31 13.3875 70.0998 13.9875 70.0998 14.7825V17.8425C70.0998 18.6225 70.31 19.2225 70.7303 19.6425C71.1506 20.0475 71.7286 20.25 72.4642 20.25Z" fill="#121212"/>
<path d="M84.9079 22.725C83.6769 22.725 82.6786 22.2975 81.913 21.4425C81.1624 20.5875 80.7871 19.44 80.7871 18V14.6475C80.7871 13.1925 81.1624 12.0375 81.913 11.1825C82.6636 10.3275 83.6619 9.9 84.9079 9.9C85.9287 9.9 86.7393 10.1925 87.3398 10.7775C87.9403 11.3475 88.2405 12.135 88.2405 13.14L87.61 12.4875H88.2631L88.173 9.54V6.075H90.9877V22.5H88.2405V20.1375H87.61L88.2405 19.485C88.2405 20.49 87.9403 21.285 87.3398 21.87C86.7393 22.44 85.9287 22.725 84.9079 22.725ZM85.8987 20.295C86.6192 20.295 87.1747 20.085 87.565 19.665C87.9703 19.23 88.173 18.63 88.173 17.865V14.76C88.173 13.995 87.9703 13.4025 87.565 12.9825C87.1747 12.5475 86.6192 12.33 85.8987 12.33C85.1781 12.33 84.6151 12.54 84.2098 12.96C83.8045 13.38 83.6018 13.98 83.6018 14.76V17.865C83.6018 18.645 83.8045 19.245 84.2098 19.665C84.6151 20.085 85.1781 20.295 85.8987 20.295Z" fill="#121212"/>
<path d="M99.4908 22.725C98.4399 22.725 97.5242 22.5225 96.7436 22.1175C95.9629 21.7125 95.355 21.15 94.9196 20.43C94.4993 19.695 94.2891 18.84 94.2891 17.865V14.76C94.2891 13.785 94.4993 12.9375 94.9196 12.2175C95.355 11.4825 95.9629 10.9125 96.7436 10.5075C97.5242 10.1025 98.4399 9.9 99.4908 9.9C100.527 9.9 101.427 10.1025 102.193 10.5075C102.974 10.9125 103.574 11.4825 103.994 12.2175C104.43 12.9375 104.647 13.785 104.647 14.76V16.9875H97.0138V17.865C97.0138 18.735 97.224 19.395 97.6443 19.845C98.0646 20.28 98.6876 20.4975 99.5133 20.4975C100.144 20.4975 100.654 20.3925 101.045 20.1825C101.435 19.9575 101.683 19.635 101.788 19.215H104.557C104.347 20.28 103.777 21.135 102.846 21.78C101.93 22.41 100.812 22.725 99.4908 22.725ZM101.923 15.4125V14.7375C101.923 13.8825 101.72 13.23 101.315 12.78C100.909 12.315 100.301 12.0825 99.4908 12.0825C98.6801 12.0825 98.0646 12.315 97.6443 12.78C97.224 13.245 97.0138 13.905 97.0138 14.76V15.2325L102.125 15.1875L101.923 15.4125Z" fill="#121212"/>
<path d="M111.597 22.725C110.321 22.725 109.315 22.3875 108.579 21.7125C107.844 21.0375 107.476 20.13 107.476 18.99C107.476 17.775 107.881 16.8375 108.692 16.1775C109.503 15.5175 110.651 15.1875 112.137 15.1875H115.222V14.13C115.222 13.53 115.027 13.065 114.637 12.735C114.246 12.39 113.713 12.2175 113.038 12.2175C112.422 12.2175 111.912 12.3525 111.507 12.6225C111.101 12.8925 110.861 13.26 110.786 13.725H108.039C108.174 12.555 108.699 11.625 109.615 10.935C110.531 10.245 111.702 9.9 113.128 9.9C114.644 9.9 115.838 10.2825 116.708 11.0475C117.594 11.7975 118.037 12.8175 118.037 14.1075V22.5H115.312V20.34H114.862L115.312 19.7325C115.312 20.6475 114.974 21.375 114.299 21.915C113.623 22.455 112.723 22.725 111.597 22.725ZM112.52 20.61C113.316 20.61 113.961 20.4075 114.456 20.0025C114.967 19.5975 115.222 19.0725 115.222 18.4275V16.92H112.182C111.612 16.92 111.154 17.085 110.809 17.415C110.463 17.745 110.291 18.18 110.291 18.72C110.291 19.305 110.486 19.77 110.876 20.115C111.281 20.445 111.829 20.61 112.52 20.61Z" fill="white"/>
<path d="M121.451 22.5V10.125H124.198V12.4875H124.964L124.198 13.14C124.198 12.12 124.491 11.325 125.076 10.755C125.677 10.185 126.495 9.9 127.531 9.9C128.747 9.9 129.715 10.305 130.436 11.115C131.171 11.925 131.539 13.0125 131.539 14.3775V22.5H128.724V14.67C128.724 13.92 128.529 13.3425 128.139 12.9375C127.748 12.5325 127.2 12.33 126.495 12.33C125.804 12.33 125.256 12.54 124.851 12.96C124.461 13.38 124.266 13.98 124.266 14.76V22.5H121.451Z" fill="white"/>
<path d="M139.974 22.725C139.329 22.725 138.811 22.5375 138.421 22.1625C138.045 21.7875 137.858 21.2775 137.858 20.6325C137.858 19.9875 138.045 19.4775 138.421 19.1025C138.811 18.7125 139.329 18.5175 139.974 18.5175C140.62 18.5175 141.13 18.7125 141.506 19.1025C141.896 19.4775 142.091 19.9875 142.091 20.6325C142.091 21.2775 141.896 21.7875 141.506 22.1625C141.13 22.5375 140.62 22.725 139.974 22.725Z" fill="white"/>
<path d="M148.432 22.5V19.935H152.756V12.6675H148.995V10.125H155.458V19.935H159.286V22.5H148.432ZM153.882 8.055C153.311 8.055 152.861 7.9125 152.531 7.6275C152.2 7.3275 152.035 6.93 152.035 6.435C152.035 5.94 152.2 5.55 152.531 5.265C152.861 4.965 153.311 4.815 153.882 4.815C154.452 4.815 154.903 4.965 155.233 5.265C155.563 5.55 155.728 5.94 155.728 6.435C155.728 6.93 155.563 7.3275 155.233 7.6275C154.903 7.9125 154.452 8.055 153.882 8.055Z" fill="white"/>
<path d="M165.92 22.725C164.689 22.725 163.691 22.2975 162.925 21.4425C162.175 20.5875 161.799 19.44 161.799 18V14.6475C161.799 13.1925 162.175 12.0375 162.925 11.1825C163.676 10.3275 164.674 9.9 165.92 9.9C166.941 9.9 167.752 10.1925 168.352 10.7775C168.953 11.3475 169.253 12.135 169.253 13.14L168.622 12.4875H169.275L169.185 9.54V6.075H172V22.5H169.253V20.1375H168.622L169.253 19.485C169.253 20.49 168.953 21.285 168.352 21.87C167.752 22.44 166.941 22.725 165.92 22.725ZM166.911 20.295C167.632 20.295 168.187 20.085 168.577 19.665C168.983 19.23 169.185 18.63 169.185 17.865V14.76C169.185 13.995 168.983 13.4025 168.577 12.9825C168.187 12.5475 167.632 12.33 166.911 12.33C166.19 12.33 165.627 12.54 165.222 12.96C164.817 13.38 164.614 13.98 164.614 14.76V17.865C164.614 18.645 164.817 19.245 165.222 19.665C165.627 20.085 166.19 20.295 166.911 20.295Z" fill="white"/>
</svg>
